<?xml version="1.0" encoding="UTF-8"?>
<svg id="Capa_1" data-name="Capa 1" xmlns="http://www.w3.org/2000/svg" xmlns:xlink="http://www.w3.org/1999/xlink" viewBox="0 0 46.79 43.43">
  <defs>
    <style>
      .cls-1, .cls-2 {
        stroke: #000;
        stroke-miterlimit: 10;
        stroke-width: 2px;
      }

      .cls-3 {
        fill: url(#Cielo);
      }

      .cls-4 {
        fill: #3fa9f5;
      }

      .cls-2 {
        fill: none;
      }
    </style>
    <linearGradient id="Cielo" x1="13.28" y1="26.84" x2="46.79" y2="26.84" gradientUnits="userSpaceOnUse">
      <stop offset="0" stop-color="#cce0f4"/>
      <stop offset=".06" stop-color="#c2dcf2"/>
      <stop offset=".17" stop-color="#a9d2ee"/>
      <stop offset=".31" stop-color="#7fc2e7"/>
      <stop offset=".46" stop-color="#46abdd"/>
      <stop offset=".57" stop-color="#1e9cd7"/>
      <stop offset=".87" stop-color="#0075be"/>
      <stop offset=".99" stop-color="#005b97"/>
    </linearGradient>
  </defs>
  <path class="cls-1" d="M18.52,21.11c-.95-1.13-2.11-1.82-3.48-2.07,1.28-.37,2.32-1.02,3.13-1.95.81-.93,1.22-2.14,1.22-3.64,0-1.79-.64-3.25-1.93-4.38-1.29-1.13-3.17-1.69-5.63-1.69H3.64v24.09h8.43c1.65,0,3.06-.28,4.25-.84.16-.08.31-.16.47-.24l-1.34-1.78c-.92.56-2.11.83-3.55.83h-5.82v-9.41h5.71c1.74,0,3.13.43,4.17,1.29,1.03.86,1.55,2.02,1.55,3.47,0,.38-.03.73-.1,1.06.7.38,1.45.8,2.21,1.23.22-.64.33-1.33.33-2.05,0-1.49-.48-2.81-1.43-3.93ZM11.76,18.05h-5.68v-8.62h5.57c1.72,0,3.03.38,3.92,1.14.9.76,1.34,1.8,1.34,3.14s-.45,2.42-1.34,3.19c-.89.77-2.17,1.16-3.82,1.16Z"/>
  <path class="cls-4" d="M37.68,11.1c-.68-1.17-1.68-2.09-3.03-2.76-.52-.26-1.08-.46-1.69-.62-.97-.25-2.06-.38-3.26-.38h-9.65v20c2.22,1.26,4.35,2.52,5.04,2.85l.92.14v-7.48h3.69c1.7,0,3.16-.26,4.39-.77.22-.09.42-.19.62-.29,1.18-.62,2.09-1.41,2.73-2.37.1-.14.19-.29.27-.44.24-.42.43-.86.58-1.31.27-.8.4-1.64.4-2.53,0-1.52-.34-2.86-1.01-4.04ZM31.79,17.37c-.56.53-1.4.79-2.54.79h-3.24v-6.07h3.24c1.14,0,1.99.26,2.54.79.56.53.84,1.27.84,2.24s-.28,1.71-.84,2.24Z"/>
  <ellipse class="cls-2" cx="20.65" cy="20.44" rx="19.65" ry="19.44"/>
  <path class="cls-3" d="M46.57,12.1l-17.7,30.27c-.53.95-1.41,1.31-2.46.87l-4.68-6.25-4.94-6.59-1.34-1.78-2.12-2.83c-.19-.55.16-1.28.72-1.42.32-.08,1.69.59,3.36,1.5.7.38,1.45.8,2.21,1.23.15.08.29.16.43.25,2.22,1.26,4.35,2.52,5.04,2.85l.92.14.2.03,7.89-8.29c.22-.09.42-.19.62-.29,1.18-.62,2.09-1.41,2.73-2.37.1-.14.19-.29.27-.44.24-.42.43-.86.58-1.31l7.02-7.38c1.12-.31,1.87.82,1.26,1.82Z"/>
</svg>